<svg xmlns="http://www.w3.org/2000/svg" width="250" height="250" viewBox="0 0 560 560"><g transform="translate(20.5 32.5)"><g id="Property 1=03 Unfolding">
<g id="OOCA Stars &#226;&#128;&#148; Emotion Components SVG_2">
<path id="Vector" d="M236.304 18.5247C248.485 -2.52024 266.612 -8.38608 280.07 15.4999C291.217 30.0422 301.59 45.6988 312.004 60.8105C313.656 63.2046 320.819 73.5647 321.697 75.6833C322.133 76.3262 323.823 78.7081 324.091 79.247C329.58 87.1824 365.401 138.61 366.77 143.919C367.289 144.329 367.809 144.733 368.328 145.143C401.381 146.845 435.122 147.562 468.192 148.774C472.985 148.952 490.803 149.454 492.662 150.225C498.948 150.305 503.909 150.433 509.364 154.236C528.203 168.913 514.675 186.48 505.833 202.424C503.254 208.468 495.243 222.189 491.411 228.049C486.634 237.522 481.306 246.92 476.077 256.178C472.777 262.02 468.666 270.604 465.126 275.907C459.289 286.402 454.084 296.731 447.939 307.104L477.066 405.373C478.322 409.891 479.586 414.845 480.945 419.296C485.252 432.737 495.523 464.613 494.438 477.667C488.799 498.755 472.595 495.957 455.94 491.659C438.958 486.87 421.384 482.982 404.18 478.163C397.273 476.682 389.635 474.416 382.68 472.647C366.841 468.789 351.085 464.595 335.423 460.076C310.299 454.235 284.506 445.834 259.489 439.711C215.017 452.245 170.39 464.233 125.621 475.671C105.003 480.87 83.8591 486.674 63.0921 491.052C57.0609 493.244 45.3757 495.969 39.039 494.53C35.2359 494.077 33.5637 493.44 30.4973 491.175C28.6114 490.024 26.6784 488.034 25.0343 486.485C22.1908 482.223 20.8186 475.849 21.6495 470.834C23.7246 458.313 28.0052 445.485 31.5817 433.318C38.8345 408.318 46.3499 383.397 54.1274 358.556C57.2183 347.087 61.0715 335.815 64.3486 324.395C65.7232 319.607 67.1095 314.819 68.9813 310.196C58.4558 293.492 46.0437 268.308 36.3534 250.509L19.2566 218.883C14.5186 210.262 3.02565 190.435 0.864218 182.01C-5.12841 158.295 21.4309 155.014 37.7678 154.156C40.5948 153.415 50.5172 152.491 53.9296 152.154C68.8392 150.819 83.7721 149.766 98.7209 148.995C100.34 148.578 112.478 147.825 114.807 147.684C126.291 147.005 138.207 145.817 149.668 145.437L153.912 138.659C162.1 126.247 170.759 113.824 179.093 101.474C190.636 84.3658 202.502 65.8191 214.681 49.2746C216.234 45.9681 224.018 35.2529 226.596 32.6628C229.664 27.5746 232.374 23.0067 236.304 18.5247Z" fill="#E6F6ED"/>
<path id="Vector_2" d="M230.706 35.3636C237.116 26.2402 244.403 14.4718 252.542 6.77511C254.116 5.28721 257.354 4.47892 259.461 3.9707L259.497 115.288L259.427 157.408C259.395 164.591 259.627 173.518 259.142 180.498C254.366 179.714 245.016 176.91 239.816 175.643C225.096 172.165 210.405 168.564 195.744 164.842C190.009 163.366 172.676 157.788 168.162 159.888C162.68 158.706 157.299 157.145 151.896 155.645C158.759 204.36 164.826 255.224 172.415 303.516C168.746 304.674 136.422 306.829 132.991 306.351C122.66 306.774 111.459 307.753 101.313 307.845C98.1809 309.768 81.1882 308.072 77.7219 310.172C76.8653 310.693 76.0614 314.495 72.818 317.544L75.198 308.99C69.2929 299.665 63.6732 288.845 58.3658 279.067C53.37 269.864 46.7007 258.61 42.5181 249.125C38.2546 244.141 29.5133 223.874 23.9836 216.385L22.8135 217.016C22.9598 220.653 26.1475 222.808 26.442 226.409C20.1224 220.561 8.02573 186.156 0.864218 182.011C-5.12841 158.296 21.4309 155.014 37.7678 154.157C40.5948 153.416 50.5172 152.491 53.9296 152.155C68.8392 150.82 83.7721 149.767 98.7209 148.995C100.34 148.579 112.478 147.826 114.807 147.685C126.291 147.005 138.207 145.817 149.668 145.438L153.912 138.659C162.1 126.248 170.759 113.824 179.093 101.474C190.636 84.3663 202.502 65.8196 214.681 49.2751L217.059 50.6161C220.295 46.8076 225.673 35.5412 229.575 33.5328L230.706 35.3636Z" fill="#EDF8F1"/>
<path id="Vector_3" d="M153.912 138.659L155.133 140.061L156.319 139.743C155.015 141.917 152.595 144.856 152.27 147.207C152.977 148.689 152.945 148.676 154.033 149.895C150.183 150.973 135.871 151.132 130.578 151.634C138.373 153.997 145.548 151.909 153.661 151.077C132.959 167.682 108.217 192.187 88.0582 210.342C84.1272 213.813 76.4777 220.212 73.0653 223.72C68.0181 229.195 51.0083 244.441 44.8957 249.278C43.4641 249.162 44.1395 249.321 42.8634 248.819L42.5181 249.125C38.2546 244.141 29.5133 223.874 23.9836 216.385L22.8135 217.016C22.9598 220.653 26.1475 222.808 26.442 226.409C20.1224 220.561 8.02573 186.156 0.864218 182.01C-5.12841 158.296 21.4309 155.014 37.7678 154.157C40.5948 153.416 50.5172 152.491 53.9296 152.154C68.8392 150.819 83.7721 149.766 98.7209 148.995C100.34 148.579 112.478 147.825 114.807 147.685C126.291 147.005 138.207 145.817 149.668 145.437L153.912 138.659Z" fill="#E6F6ED"/>
<path id="Vector_4" d="M153.912 138.659L155.132 140.061L156.318 139.743C155.015 141.917 152.594 144.856 152.27 147.207C152.977 148.689 152.945 148.676 154.033 149.895C150.183 150.973 135.87 151.132 130.578 151.634C124.129 151.628 53.704 156.312 48.9691 157.977C49.8122 155.828 55.7504 157.965 60.072 154.567C54.0873 154.83 48.4486 155.344 42.494 155.883C39.937 155.406 40.0294 155.436 37.7676 154.157C40.5946 153.416 50.517 152.491 53.9294 152.154C68.839 150.819 83.7719 149.766 98.7207 148.995C100.34 148.579 112.478 147.825 114.807 147.685C126.29 147.005 138.206 145.817 149.667 145.437L153.912 138.659Z" fill="white"/>
<path id="Vector_5" d="M37.7676 154.156C40.5946 153.415 50.517 152.49 53.9294 152.154C68.839 150.819 83.7719 149.766 98.7207 148.994C95.1356 152.221 88.7652 152.258 83.985 152.57C75.9552 153.097 68.0742 153.727 60.072 154.566C54.0873 154.829 48.4486 155.344 42.494 155.883C39.937 155.405 40.0294 155.436 37.7676 154.156Z" fill="white"/>
<path id="Vector_6" d="M0.864218 182.01C-5.12841 158.295 21.4309 155.013 37.7678 154.156C40.0297 155.436 39.9372 155.405 42.4942 155.883C36.1513 156.544 15.8779 157.879 12.52 161.822L13.6314 162.937C-6.09463 175.507 16.2257 200.526 23.9836 216.385L22.8135 217.015C22.9598 220.653 26.1475 222.808 26.442 226.408C20.1224 220.561 8.02573 186.155 0.864218 182.01Z" fill="white"/>
<path id="Vector_7" d="M83.1311 213.03L42.5445 190.178C37.1201 187.172 24.9781 181.092 20.7783 177.963C25.6014 178.722 82.25 206.949 88.0583 210.342C84.1273 213.813 76.4778 220.212 73.0655 223.72C73.6276 221.271 80.6623 215.497 83.1311 213.03Z" fill="#C4E7D3"/>
<path id="Vector_8" d="M42.4937 155.883C48.4483 155.344 54.0871 154.83 60.0717 154.566C55.7501 157.965 49.8119 155.828 48.9688 157.977C38.0269 159.006 23.7657 159.648 13.6309 162.937L12.5195 161.822C15.8774 157.879 36.1508 156.544 42.4937 155.883Z" fill="white"/>
<path id="Vector_9" d="M217.058 50.6155C220.294 46.807 225.673 35.5406 229.574 33.5322L230.705 35.363C213.013 62.3228 193.719 88.9091 176.099 115.936C170.285 124.851 158.37 141.255 154.033 149.895C152.945 148.676 152.977 148.688 152.27 147.207C152.594 144.855 155.014 141.916 156.318 139.743L155.132 140.061L153.912 138.659C162.099 126.247 170.758 113.824 179.092 101.474C190.635 84.3657 202.502 65.819 214.681 49.2746L217.058 50.6155Z" fill="white"/>
<path id="Vector_10" d="M214.681 49.2744L217.058 50.6154C199.874 75.426 183.087 100.512 166.158 125.494C162.96 130.215 159.941 135.371 156.318 139.742L155.132 140.061L153.912 138.659C162.1 126.247 170.758 113.824 179.093 101.473C190.636 84.3656 202.502 65.8189 214.681 49.2744Z" fill="white"/>
<path id="Vector_11" d="M101.312 307.845L101.519 306.425C108.106 304.52 126.186 305.304 132.991 306.351C122.66 306.774 111.458 307.753 101.312 307.845Z" fill="#FBFDFC"/>
<path id="Vector_12" d="M460.031 368.396C469.201 402.538 481.2 437.133 489.335 471.612C489.947 474.208 489.477 476.718 488.887 479.284C483.117 491.732 474.017 490.501 462.379 487.483C452.142 484.819 441.865 482.107 431.628 479.449C404.142 472.389 376.697 465.176 349.294 457.804C354.88 451.7 372.879 438.504 380.488 432.277C386.68 427.207 402.05 414.129 408.09 410.167C410.907 408.459 414.092 405.532 416.663 403.346C418.309 400.897 457.235 369.271 460.031 368.396Z" fill="#DEF3E7"/>
<path id="Vector_13" d="M416.663 403.346C415.887 406.015 414.247 405.93 412.334 408.403C415.464 411.636 417.114 414.11 419.962 417.214C427.56 425.444 435.28 433.557 443.123 441.547C451.777 450.383 473.017 470.914 480.103 479.927L479.892 480.288C472.877 475.187 465.361 467.264 458.949 461.135C441.852 444.805 425.474 426.105 408.09 410.167C410.907 408.458 414.092 405.532 416.663 403.346Z" fill="#C1E9D2"/>
<path id="Vector_14" d="M356.869 132.989C358.933 136.1 364.523 145.321 367.548 146.423C367.032 145.315 366.688 145.113 366.77 143.919C367.289 144.329 367.809 144.733 368.328 145.143C401.381 146.846 435.122 147.562 468.192 148.774C472.985 148.952 490.804 149.454 492.663 150.226C498.948 150.305 503.909 150.434 509.364 154.236C528.203 168.913 514.675 186.48 505.833 202.425L504.402 199.473C506.428 194.024 511.959 189.291 510.043 183.59C507.51 187.968 501.05 198.8 499.295 203.165C497.795 205.731 494.745 211.266 493.114 213.422C490.769 214.414 476.178 241.998 473.553 246.694C470.15 244.894 445.484 223.88 443.588 221.173L431.104 210.256C418.027 197.6 403.512 185.856 390.245 173.34C382.333 165.876 373.586 159.178 365.813 151.591C372.741 152.473 390.803 153.593 398.479 152.767C399.056 152.356 399.632 151.94 400.209 151.53C389.673 149.889 372.432 151.738 364.784 150.079C362.377 145.664 358.41 139.884 355.615 135.549L356.869 132.989Z" fill="#E1F4E9"/>
<path id="Vector_15" d="M356.869 132.989C358.933 136.1 364.523 145.321 367.548 146.423C367.032 145.315 366.688 145.113 366.77 143.919C367.289 144.329 367.809 144.733 368.328 145.143C401.381 146.846 435.122 147.562 468.192 148.774C472.985 148.952 490.804 149.454 492.663 150.226C498.948 150.305 503.909 150.434 509.364 154.236C528.203 168.913 514.675 186.48 505.833 202.425L504.402 199.473C506.428 194.024 511.959 189.291 510.043 183.59C518.861 169.899 513.449 156.422 497.257 155.265C480.478 154.065 462.453 152.865 445.682 152.705C433.108 152.589 412.071 149.944 400.209 151.53C389.673 149.889 372.432 151.738 364.784 150.079C362.377 145.664 358.41 139.884 355.615 135.549L356.869 132.989Z" fill="white"/>
<path id="Vector_16" d="M492.662 150.226C498.948 150.305 503.908 150.434 509.363 154.236C505.739 155.302 495.373 153.171 492.662 150.226Z" fill="white"/>
<path id="Vector_17" d="M431.104 210.256C440.637 205.394 503.416 168.435 507.439 168.056C488.31 181.361 467.175 192.934 447.694 205.786C444.005 208.223 439.855 210.831 436.049 213.054C438.609 215.822 442.943 218.632 443.588 221.173L431.104 210.256Z" fill="#C4E7D3"/>
<path id="Vector_18" d="M259.011 433.453C288.569 441.903 319.517 449.667 349.294 457.804C376.697 465.177 404.143 472.39 431.628 479.449C441.865 482.107 452.142 484.819 462.379 487.483C474.018 490.502 483.117 491.732 488.887 479.284L491.881 477.484L492.753 475.843C493.575 476.627 493.813 476.737 494.437 477.668C488.799 498.755 472.595 495.957 455.94 491.659C438.958 486.871 421.384 482.982 404.18 478.164C397.272 476.682 389.635 474.416 382.679 472.647C366.841 468.789 351.085 464.595 335.423 460.076C310.298 454.235 284.506 445.834 259.489 439.711C215.016 452.245 170.39 464.234 125.62 475.672C105.003 480.87 83.8588 486.675 63.0919 491.053C57.0607 493.245 45.3755 495.969 39.0387 494.531C35.2357 494.077 33.5635 493.441 30.4971 491.175L33.9156 490.569C33.1416 488.579 32.5171 487.954 31.2318 486.295C31.8362 486.65 32.4522 486.987 33.0792 487.305C43.0989 492.296 57.068 486.773 67.585 484.152C82.5858 480.435 97.5646 476.621 112.52 472.72C145.299 464.381 177.999 455.735 210.616 446.783C226.427 442.485 243.508 438.339 259.011 433.453Z" fill="white"/>
<path id="Vector_19" d="M59.0615 489.191C73.5952 486.656 97.3208 479.78 112.28 475.947C145.709 467.467 179.073 458.729 212.369 449.734C218.497 448.081 256.897 436.882 259.519 437.476C277.27 441.505 321.654 452.9 338.456 458.215L340.319 459.727C338.154 460.523 337.666 459.911 335.423 460.076C310.298 454.235 284.506 445.834 259.489 439.711C215.016 452.245 170.39 464.234 125.62 475.671C105.003 480.87 83.8586 486.675 63.0917 491.053L62.8609 490.544L63.2687 490.263L62.5927 489.418L59.0615 489.191Z" fill="white"/>
<path id="Vector_20" d="M338.456 458.215L407.895 476.376L444.41 485.873C449.225 487.116 457.372 489.473 461.924 490.33C475.977 494.249 487.547 492.988 491.881 477.484L492.753 475.843C493.575 476.627 493.813 476.737 494.437 477.668C488.798 498.755 472.594 495.957 455.94 491.659C438.957 486.871 421.384 482.983 404.18 478.164C397.272 476.682 389.634 474.416 382.679 472.647C366.841 468.789 351.085 464.595 335.423 460.076C337.666 459.911 338.154 460.523 340.319 459.727L338.456 458.215Z" fill="white"/>
<path id="Vector_21" d="M59.062 489.191L62.5932 489.418L63.2692 490.263L62.8614 490.545L63.0922 491.053C57.061 493.245 45.3758 495.97 39.0391 494.531C42.2684 494.231 43.6736 494.494 46.0989 492.553C49.6846 491.414 55.2774 490.165 59.062 489.191Z" fill="white"/>
<path id="Vector_22" d="M30.4971 491.175L33.9156 490.568C38.7877 492.791 40.902 492.662 46.0986 492.552C43.6733 494.493 42.268 494.23 39.0387 494.53C35.2357 494.077 33.5635 493.44 30.4971 491.175Z" fill="white"/>
<path id="Vector_23" d="M0.864258 182.01C8.02577 186.155 20.1225 220.56 26.4421 226.408C26.1475 222.808 22.9599 220.652 22.8135 217.015L23.9837 216.385C29.5134 223.873 38.2546 244.14 42.5181 249.124C46.7008 258.609 53.37 269.863 58.3658 279.066C63.6733 288.845 69.293 299.664 75.198 308.99L72.818 317.543C57.3763 363.736 44.9453 411.93 30.2586 458.435C28.2312 464.852 25.8567 472.671 27.0195 479.357C28.5484 482.272 29.3125 483.637 31.2321 486.295C32.5173 487.954 33.1419 488.579 33.9159 490.569L30.4974 491.175C28.6115 490.024 26.6784 488.034 25.0344 486.484C22.1908 482.223 20.8187 475.849 21.6496 470.834C23.7247 458.312 28.0053 445.484 31.5817 433.318C38.8345 408.318 46.3499 383.397 54.1274 358.556C57.2183 347.087 61.0716 335.815 64.3486 324.395C65.7232 319.607 67.1095 314.819 68.9813 310.196C58.4558 293.492 46.0438 268.308 36.3534 250.508L19.2567 218.883C14.5186 210.261 3.02569 190.435 0.864258 182.01Z" fill="white"/>
<path id="Vector_24" d="M23.9836 216.385C29.5133 223.873 38.2546 244.141 42.5181 249.125C46.7007 258.609 53.3699 269.863 58.3657 279.066C63.6732 288.845 69.2929 299.664 75.198 308.99L72.818 317.544C57.3762 363.736 44.9452 411.93 30.2585 458.435C28.2311 464.852 25.8566 472.671 27.0194 479.357C24.5334 476.357 24.5218 473.675 24.1581 469.952C27.4823 459.702 30.6608 446.164 33.9023 435.278C42.0386 408.673 50.0133 382.013 57.8275 355.311C62.6666 340.279 67.1854 325.142 71.3803 309.92C61.2221 289.531 49.5412 269.723 38.9477 249.553C34.8771 241.795 30.7508 234.031 26.442 226.408C26.1475 222.808 22.9598 220.653 22.8135 217.015L23.9836 216.385Z" fill="white"/>
<path id="Vector_25" d="M25.0338 486.485C25.3271 479.683 22.5546 477.968 24.1576 469.953C24.5213 473.676 24.5329 476.358 27.0189 479.358C28.5478 482.273 29.3119 483.638 31.2315 486.296C32.5167 487.955 33.1413 488.579 33.9153 490.569L30.4968 491.176C28.6109 490.024 26.6778 488.034 25.0338 486.485Z" fill="white"/>
<path id="Vector_26" d="M510.042 183.59C511.959 189.29 506.428 194.023 504.401 199.473L505.832 202.424C503.254 208.468 495.242 222.19 491.41 228.049C486.634 237.522 481.306 246.92 476.076 256.179C472.776 262.02 468.665 270.604 465.125 275.907C459.289 286.402 454.083 296.731 447.939 307.104L477.066 405.373C478.321 409.892 479.586 414.845 480.944 419.297C485.252 432.737 495.522 464.613 494.437 477.667C493.812 476.737 493.575 476.627 492.753 475.843L491.881 477.484L488.887 479.284C489.477 476.718 489.947 474.208 489.335 471.612C481.2 437.133 469.201 402.538 460.031 368.396C453.762 351.325 447.044 324.793 441.458 306.479C451.476 289.672 460.892 271.37 470.569 254.28C475.49 245.629 480.36 236.952 485.179 228.245C487.451 224.161 491.377 217.542 493.114 213.421C494.744 211.266 497.795 205.731 499.294 203.165C501.05 198.799 507.509 187.968 510.042 183.59Z" fill="white"/>
<path id="Vector_27" d="M463.865 272.876L465.125 275.907C459.289 286.402 454.083 296.731 447.939 307.104L477.066 405.373L476.948 409.53C476.429 409.481 475.909 409.426 475.39 409.371C471.422 397.609 467.992 384.071 464.396 372.008C457.733 350.431 451.24 328.798 444.917 307.116C450.305 296.333 457.868 283.53 463.865 272.876Z" fill="white"/>
<path id="Vector_28" d="M504.401 199.473L505.832 202.424C503.254 208.467 495.242 222.189 491.41 228.049C486.634 237.521 481.306 246.92 476.076 256.178C472.776 262.02 468.665 270.604 465.125 275.907L463.865 272.876L488.36 228.38C492.677 220.756 496.733 213.121 500.935 205.443L504.401 199.473Z" fill="white"/>
<path id="Vector_29" d="M480.945 419.297C485.252 432.737 495.522 464.614 494.437 477.668C493.813 476.737 493.575 476.627 492.754 475.843C491.074 461.913 482.352 434.439 478.156 419.695L480.945 419.297Z" fill="white"/>
<path id="Vector_30" d="M477.066 405.373C478.321 409.892 479.586 414.845 480.944 419.297L478.156 419.695C477.261 417.142 476.113 412.164 475.39 409.371C475.909 409.427 476.429 409.482 476.949 409.531L477.066 405.373Z" fill="white"/>
<path id="Vector_31" d="M236.304 18.5247C248.484 -2.52024 266.611 -8.38608 280.07 15.4999C291.216 30.0422 301.59 45.6988 312.003 60.8105C313.655 63.2046 320.819 73.5647 321.697 75.6833C322.133 76.3262 323.823 78.7081 324.091 79.247C321.378 84.3719 328.081 87.7274 329.868 92.7054L327.57 93.5443C311.01 68.9051 294.317 44.3517 277.493 19.8901C272.042 12.0465 269.238 5.73361 259.461 3.97018C257.354 4.47839 254.116 5.28668 252.542 6.77458C244.403 14.4712 237.116 26.2397 230.705 35.3631L229.574 33.5323C225.673 35.5406 220.294 46.807 217.058 50.6156L214.681 49.2746C216.233 45.9681 224.018 35.2529 226.596 32.6628C229.664 27.5746 232.374 23.0067 236.304 18.5247Z" fill="white"/>
<path id="Vector_32" d="M280.07 15.5C291.217 30.0422 301.59 45.6989 312.004 60.8105C313.656 63.2047 320.819 73.5648 321.697 75.6834C321.114 76.6141 321.356 76.1365 320.897 77.404L320.544 78.4082C308.174 60.088 291.725 34.5549 278.347 17.1961L280.07 15.5Z" fill="white"/>
<path id="Vector_33" d="M226.597 32.6636C229.664 27.5753 232.374 23.0075 236.304 18.5254L237.113 19.5051L237.414 19.3275L238.086 19.9949C236.139 23.8892 230.912 31.6471 226.597 32.6636Z" fill="white"/>
<path id="Vector_34" d="M168.162 159.887C172.676 157.787 190.009 163.365 195.744 164.841C210.404 168.563 225.095 172.164 239.816 175.642C245.016 176.909 254.366 179.713 259.142 180.497C267.095 178.268 292.875 170.504 299.55 171.625C298.704 172.672 262.744 181.048 258.263 182.138C247.033 178.832 232.401 175.77 220.674 172.947L168.162 159.887Z" fill="#FBFDFC"/>
<path id="Vector_35" d="M324.091 79.2471C329.58 87.1825 365.401 138.61 366.77 143.919C366.688 145.113 367.032 145.315 367.549 146.423C364.523 145.321 358.933 136.1 356.869 132.989C347.976 119.488 338.975 106.06 329.869 92.7055C328.081 87.7275 321.378 84.3721 324.091 79.2471Z" fill="white"/>
<path id="Vector_36" d="M329.868 92.7051C338.975 106.059 347.975 119.487 356.869 132.989L355.615 135.548C353.194 132.756 347.906 124.471 345.663 121.11C339.526 111.987 333.495 102.802 327.57 93.5439L329.868 92.7051Z" fill="white"/>
<path id="Vector_37" d="M88.1796 431.139C86.9299 431.959 78.613 440.44 76.9818 442.081C68.0807 451.057 59.0793 459.942 49.9792 468.722C46.7358 471.894 39.3587 479.437 36.0352 481.801C36.1105 477.356 98.0561 419.634 104.752 408.239C103.438 407.357 102.344 406.867 101.724 405.453L102.044 405.055L108.938 410.418L103.766 415.488L104.052 417.429C101.791 420.209 91.3208 431.249 88.1796 431.139Z" fill="#C4E7D3"/>
<path id="Vector_38" d="M103.767 415.488L104.052 417.429C101.791 420.209 91.3208 431.249 88.1797 431.139C92.3697 426.277 99.072 420.05 103.767 415.488Z" fill="#EDF8F1"/>
</g>
</g></g></svg>
